# xmcd
#
# Track frame offsets:
#	150
#	24035
#	44043
#	61240
#	66877
#	84097
#	100310
#	125419
#	145418
#	164265
#	187026
#	208414
#	232563
#	255974
#
# Disc length: 3562
#
# Revision: 1
# Processed by: cddbd v1.5.1PL0 Copyright (c) Steve Scherf et al.
# Submitted via: dBpowerAMP V4.0
# Normalized: r0:TRMNUM
#
DISCID=b80de80e
DTITLE=Diego Mizrahi - Pampalucha
DYEAR=2002
DGENRE=Blues
TTITLE0=Marcha a Rivendell
TTITLE1=G Power
TTITLE2=Utopia I
TTITLE3=Maravilloso este mundo I (Wonderful World)
TTITLE4=Maravilloso este mundo II (Wonderful World)
TTITLE5=Pampa Power
TTITLE6=Sin Cero
TTITLE7=Inhibido
TTITLE8=Plan Ve
TTITLE9=TangoSado
TTITLE10=Pampalucha
TTITLE11=Tati
TTITLE12=Turbulencias
TTITLE13=Epilogo (Utopia II)
EXTD=Music From The Pampas [Blues]
EXTT0=
EXTT1=
EXTT2=
EXTT3=
EXTT4=
EXTT5=
EXTT6=
EXTT7=
EXTT8=
EXTT9=
EXTT10=
EXTT11=
EXTT12=
EXTT13=
PLAYORDER=
